<?xml version="1.0" encoding="utf-8"?>
<!-- Generator: Adobe Illustrator 16.0.0, SVG Export Plug-In . SVG Version: 6.00 Build 0)  -->
<!DOCTYPE svg PUBLIC "-//W3C//DTD SVG 1.1//EN" "http://www.w3.org/Graphics/SVG/1.1/DTD/svg11.dtd">
<svg version="1.1" id="Capa_1" xmlns="http://www.w3.org/2000/svg" xmlns:xlink="http://www.w3.org/1999/xlink" x="0px" y="0px"
	 width="71.021px" height="81.258px" viewBox="0 0 71.021 81.258" enable-background="new 0 0 71.021 81.258" xml:space="preserve">
<g>
	<path id="XMLID_284_" opacity="0.85" fill="#CD9B80" d="M69.491,0h-45.15c0.515,0,1.029,0.255,1.323,0.764l22.575,39.101
		l0.441,0.765l0,0L70.814,2.291C71.402,1.272,70.666,0,69.491,0z"/>
	<path id="XMLID_161_" opacity="0.85" fill="#363635" d="M25.664,80.493l22.575-39.1l0.44-0.765l-0.44-0.764L25.664,0.765
		c-0.589-1.019-2.06-1.019-2.647,0L0.441,39.865L0,40.629l0.441,0.765l22.575,39.1c0.295,0.51,0.809,0.765,1.322,0.765h0.001h0.002
		C24.855,81.258,25.37,81.003,25.664,80.493z"/>
</g>
</svg>
