<?xml version="1.0" encoding="utf-8"?>
<!-- Generator: Adobe Illustrator 16.0.0, SVG Export Plug-In . SVG Version: 6.00 Build 0)  -->
<!DOCTYPE svg PUBLIC "-//W3C//DTD SVG 1.1//EN" "http://www.w3.org/Graphics/SVG/1.1/DTD/svg11.dtd">
<svg version="1.1" id="Capa_1" xmlns="http://www.w3.org/2000/svg" xmlns:xlink="http://www.w3.org/1999/xlink" x="0px" y="0px"
	 width="71.185px" height="81.38px" viewBox="0 0 71.185 81.38" enable-background="new 0 0 71.185 81.38" xml:space="preserve">
<g id="XMLID_64_">
	<linearGradient id="XMLID_2_" gradientUnits="userSpaceOnUse" x1="0" y1="40.6899" x2="71.1846" y2="40.6899">
		<stop  offset="0" style="stop-color:#668180"/>
		<stop  offset="0.682" style="stop-color:#E0CDBD"/>
	</linearGradient>
	<path id="XMLID_70_" fill="url(#XMLID_2_)" d="M48.894,1.339c-1.031-1.785-3.607-1.785-4.638,0L22.31,39.352l-0.759,1.314
		L0.363,77.365C-0.668,79.15,0.62,81.38,2.681,81.38h43.803h0.09h0.09c0.832-0.033,1.666-0.412,2.142-1.236l22.021-38.141
		c0.477-0.828,0.477-1.847,0-2.675L48.894,1.339z"/>
	<path id="XMLID_69_" fill="#9F7C81" d="M22.31,41.98l-0.759-1.314L0.363,77.365C-0.668,79.15,0.62,81.38,2.681,81.38h43.805
		c-0.833-0.033-1.666-0.412-2.143-1.236L22.31,41.98z"/>
	<path id="XMLID_68_" fill="#CD9D80" d="M46.086,26.385c0.211-0.365,0.738-0.365,0.949,0l8.094,14.019l0.158,0.274l7.936-13.745
		c0.211-0.365-0.053-0.821-0.475-0.821H46.561H30.373c-0.421,0-0.685,0.456-0.474,0.821l7.936,13.745l0.157-0.274L46.086,26.385z"/>
	<path id="XMLID_67_" fill="#45717C" d="M37.991,40.952l-0.157-0.274l-7.936,13.745c-0.211,0.364,0.053,0.821,0.474,0.821H46.56
		c-0.184,0-0.367-0.091-0.474-0.273L37.991,40.952z"/>
	<path id="XMLID_66_" fill="#45717C" d="M55.287,40.677l-0.158,0.274L47.035,54.97c-0.105,0.183-0.29,0.273-0.474,0.273h16.187
		c0.422,0,0.686-0.457,0.475-0.821L55.287,40.677z"/>
	<path id="XMLID_65_" fill="#3A3636" d="M55.129,40.952l0.158-0.274l-0.158-0.274l-8.094-14.019c-0.211-0.365-0.738-0.365-0.949,0
		l-8.095,14.019l-0.157,0.274l0.157,0.274l8.095,14.019c0.106,0.183,0.29,0.273,0.474,0.273h0.001h0.001
		c0.184,0,0.368-0.091,0.474-0.273L55.129,40.952z"/>
</g>
</svg>
